<?xml version="1.0" encoding="utf-8" standalone="no"?>
<!DOCTYPE svg PUBLIC "-//W3C//DTD SVG 1.1//EN" "http://www.w3.org/Graphics/SVG/1.1/DTD/svg11.dtd">
<svg xmlns="http://www.w3.org/2000/svg" xmlns:xl="http://www.w3.org/1999/xlink" version="1.1" viewBox="443 229 160 248" width="160pt" height="248pt" xmlns:dc="http://purl.org/dc/elements/1.1/"><metadata> Produced by OmniGraffle 6.0.5 <dc:date>2017-05-11 21:24Z</dc:date></metadata><defs/><g stroke="none" stroke-opacity="1" stroke-dasharray="none" fill="none" fill-opacity="1"><title>Canvas 1</title><g><title>Layer 1</title><rect x="458.375" y="244.125" width="12.375" height="218.25" fill="black"/><rect x="458.375" y="244.125" width="12.375" height="218.25" stroke="black" stroke-linecap="round" stroke-linejoin="round" stroke-width="1"/><rect x="458.375" y="244.125" width="86.59424" height="12.375" fill="black"/><rect x="458.375" y="244.125" width="86.59424" height="12.375" stroke="black" stroke-linecap="round" stroke-linejoin="round" stroke-width="1"/><rect x="458.375" y="450" width="130.5" height="12.375" fill="black"/><rect x="458.375" y="450" width="130.5" height="12.375" stroke="black" stroke-linecap="round" stroke-linejoin="round" stroke-width="1"/><path d="M 493.95557 246.48178 L 502.70602 255.23222 L 467.12545 290.8128 L 458.375 282.06235 Z" fill="black"/><path d="M 493.95557 246.48178 L 502.70602 255.23222 L 467.12545 290.8128 L 458.375 282.06235 Z" stroke="black" stroke-linecap="round" stroke-linejoin="round" stroke-width="1"/><rect x="533.75" y="256.5" width="6.7807617" height="32.625" fill="black"/><rect x="533.75" y="256.5" width="6.7807617" height="32.625" stroke="black" stroke-linecap="round" stroke-linejoin="round" stroke-width="1"/><rect x="533.75" y="318.375" width="6.7807617" height="62.138252" fill="black"/><rect x="533.75" y="318.375" width="6.7807617" height="62.138252" stroke="black" stroke-linecap="round" stroke-linejoin="round" stroke-width="1"/><ellipse cx="537.14038" cy="301.33172" rx="16.261439" ry="17.043302" fill="black"/><ellipse cx="537.14038" cy="301.33172" rx="16.261439" ry="17.043302" stroke="black" stroke-linecap="round" stroke-linejoin="round" stroke-width="1"/><path d="M 536.53076 331.0625 L 564.69636 314.80109 L 568.08674 320.6734 L 539.92114 336.93481 Z" fill="black"/><path d="M 536.53076 331.0625 L 564.69636 314.80109 L 568.08674 320.6734 L 539.92114 336.93481 Z" stroke="black" stroke-linecap="round" stroke-linejoin="round" stroke-width="1"/><path d="M 537.53076 331.0625 L 509.36517 314.80109 L 505.9748 320.6734 L 534.14038 336.93481 Z" fill="black"/><path d="M 537.53076 331.0625 L 509.36517 314.80109 L 505.9748 320.6734 L 534.14038 336.93481 Z" stroke="black" stroke-linecap="round" stroke-linejoin="round" stroke-width="1"/><path d="M 514.93213 429.59096 L 533.15893 379.51325 L 539.53076 381.8324 L 521.30397 431.91012 Z" fill="black"/><path d="M 514.93213 429.59096 L 533.15893 379.51325 L 539.53076 381.8324 L 521.30397 431.91012 Z" stroke="black" stroke-linecap="round" stroke-linejoin="round" stroke-width="1"/></g></g></svg>
